<?xml version="1.0" standalone="no"?>
<!DOCTYPE svg PUBLIC "-//W3C//DTD SVG 20010904//EN"
 "http://www.w3.org/TR/2001/REC-SVG-20010904/DTD/svg10.dtd">
<svg version="1.0" xmlns="http://www.w3.org/2000/svg"
 width="256.000000pt" height="256.000000pt" viewBox="0 0 256.000000 256.000000"
 preserveAspectRatio="xMidYMid meet">
<metadata>
Created by potrace 1.14, written by Peter Selinger 2001-2017
</metadata>
<g transform="translate(0.000000,256.000000) scale(0.100000,-0.100000)"
fill="#000000" stroke="none">
<path d="M401 2397 c-126 -42 -245 -168 -318 -336 -13 -31 -28 -63 -32 -71 -4
-8 -18 -52 -31 -98 l-24 -82 32 -28 c43 -36 59 -89 61 -199 5 -208 24 -350 58
-415 26 -53 100 -73 157 -43 15 8 29 15 31 15 1 0 8 -21 14 -46 16 -63 63
-165 108 -233 45 -69 156 -180 210 -210 22 -13 48 -36 57 -52 9 -16 33 -41 52
-57 20 -15 47 -49 61 -77 33 -64 135 -164 193 -190 25 -11 58 -35 74 -53 45
-52 100 -75 176 -76 75 0 130 23 176 76 16 18 49 42 74 53 56 25 160 126 190
185 13 25 44 65 70 90 26 25 51 52 56 61 5 8 34 32 65 52 130 86 259 271 300
430 13 52 13 52 49 32 52 -30 127 -9 153 43 35 67 53 201 58 414 2 109 19 166
60 202 16 14 29 31 29 36 0 6 -15 56 -34 113 -106 324 -299 505 -515 482 -57
-6 -218 -50 -236 -65 -6 -5 -31 -14 -55 -20 -44 -11 -79 -7 -215 26 -64 15
-115 19 -245 18 -119 -1 -164 -6 -250 -27 -119 -29 -149 -28 -240 9 -36 14
-71 27 -80 29 -8 2 -43 11 -77 20 -74 19 -138 17 -212 -8z"/>
</g>
</svg>
